<svg width="32" height="24" viewBox="0 0 32 24" fill="none" xmlns="http://www.w3.org/2000/svg">
<path fill-rule="evenodd" clip-rule="evenodd" d="M10.1667 12C10.1667 11.3557 10.689 10.8333 11.3333 10.8333C11.9777 10.8333 12.5 11.3557 12.5 12C12.5 12.6443 11.9777 13.1667 11.3333 13.1667C10.689 13.1667 10.1667 12.6443 10.1667 12ZM14.8333 12C14.8333 11.3557 15.3557 10.8333 16 10.8333C16.6443 10.8333 17.1667 11.3557 17.1667 12C17.1667 12.6443 16.6443 13.1667 16 13.1667C15.3557 13.1667 14.8333 12.6443 14.8333 12ZM19.5 12C19.5 11.3557 20.0223 10.8333 20.6667 10.8333C21.311 10.8333 21.8333 11.3557 21.8333 12C21.8333 12.6443 21.311 13.1667 20.6667 13.1667C20.0223 13.1667 19.5 12.6443 19.5 12Z" fill="black"/>
</svg>
