<svg width="24" height="24" viewBox="0 0 24 24" fill="none" xmlns="http://www.w3.org/2000/svg">
<path fill-rule="evenodd" clip-rule="evenodd" d="M12 1.25002C12.2855 1.25002 12.5462 1.41207 12.6725 1.66805L15.5882 7.57486L22.1085 8.5279C22.3909 8.56918 22.6254 8.76718 22.7134 9.03869C22.8015 9.3102 22.7278 9.60814 22.5233 9.80728L17.8059 14.402L18.9192 20.8932C18.9675 21.1746 18.8518 21.459 18.6208 21.6268C18.3898 21.7946 18.0836 21.8167 17.8309 21.6838L12 18.6174L6.16911 21.6838C5.91642 21.8167 5.6102 21.7946 5.37922 21.6268C5.14823 21.459 5.03255 21.1746 5.08081 20.8932L6.19413 14.402L1.47672 9.80728C1.27225 9.60814 1.19855 9.3102 1.28658 9.03869C1.37461 8.76718 1.60912 8.56918 1.89154 8.5279L8.41182 7.57486L11.3275 1.66805C11.4538 1.41207 11.7146 1.25002 12 1.25002ZM12 3.69446L9.58255 8.59198C9.47339 8.81312 9.2625 8.96646 9.01849 9.00213L3.61133 9.79247L7.52332 13.6027C7.70022 13.7751 7.78097 14.0234 7.73922 14.2668L6.81615 19.6488L11.6509 17.1062C11.8695 16.9913 12.1306 16.9913 12.3491 17.1062L17.1839 19.6488L16.2608 14.2668C16.2191 14.0234 16.2998 13.7751 16.4767 13.6027L20.3887 9.79247L14.9815 9.00213C14.7375 8.96646 14.5266 8.81312 14.4175 8.59198L12 3.69446Z" fill="black"/>
</svg>
