<svg width="8" height="8" viewBox="0 0 8 8" fill="none" xmlns="http://www.w3.org/2000/svg">
<path fill-rule="evenodd" clip-rule="evenodd" d="M0.190641 0.190641C0.361495 0.0197864 0.638505 0.0197864 0.809359 0.190641L4 3.38128L7.19064 0.190641C7.36149 0.0197864 7.6385 0.0197864 7.80936 0.190641C7.98021 0.361495 7.98021 0.638505 7.80936 0.809359L4.61872 4L7.80936 7.19064C7.98021 7.36149 7.98021 7.6385 7.80936 7.80936C7.6385 7.98021 7.36149 7.98021 7.19064 7.80936L4 4.61872L0.809359 7.80936C0.638505 7.98021 0.361495 7.98021 0.190641 7.80936C0.0197864 7.6385 0.0197864 7.36149 0.190641 7.19064L3.38128 4L0.190641 0.809359C0.0197864 0.638505 0.0197864 0.361495 0.190641 0.190641Z" fill="white"/>
</svg>
